# xmcd
#
# Track frame offsets:
#	150
#	14960
#	27055
#	38166
#	50902
#	64169
#	74822
#	89639
#	104027
#	115387
#	128856
#	143467
#	157333
#	171846
#	185084
#
# Disc length: 2644 seconds
#
# Revision: 0
# Processed by: cddbd v1.5.2PL0 Copyright (c) Steve Scherf et al.
# Submitted via: audiograbber 1.83.01
#
DISCID=f00a520f
DTITLE=Various Artist - CB60282
DYEAR=2003
DGENRE=Country
TTITLE0=Claude King - Wolverton Mountain
TTITLE1=Bob Wills - San Antonio Rose
TTITLE2=Cowboy Copas - Alabam
TTITLE3=Little Jimmy Dickens - May The Bird Of Paradise Fly Up Your Nose
TTITLE4=Hawkshaw Hawkins - Lonesome 77203
TTITLE5=Dale and Grace - I'm Leavin' It All Up To You
TTITLE6=Stonewall Jackson - B.J. The D.J.
TTITLE7=Jack Blanchard and Misty Morgan - Tennessee Birdwalk
TTITLE8=Browns, The - Looking Back To See
TTITLE9=Red Foley - Chattanoogie Shoe Shine Boy
TTITLE10=Carl and Pearl Butler - Don't Let Me Cross Over
TTITLE11=Leroy Van Dyke - Auctioneer
TTITLE12=Pee Wee King - Slow Poke
TTITLE13=Tex Williams - Smoke! Smoke! Smoke! That Cigarette
TTITLE14=Hank Thompson - Wild Side Of Life
EXTD=Updated with the new CDG listing -- 60092 is discontinued!
EXTT0=
EXTT1=
EXTT2=
EXTT3=
EXTT4=
EXTT5=
EXTT6=
EXTT7=
EXTT8=
EXTT9=
EXTT10=
EXTT11=
EXTT12=
EXTT13=
EXTT14=
PLAYORDER=
